HIERARCHY
ROOT SpineBase
{
  OFFSET 0.000000 0.000000 0.000000
  CHANNELS 6 Xposition Yposition Zposition Zrotation Xrotation Yrotation
  JOINT SpineMid
  {
    OFFSET 0.000000 34.814647 0.000000
    CHANNELS 3 Zrotation Xrotation Yrotation
    JOINT SpineShoulder
    {
      OFFSET -0.286885 25.975270 -0.745120
      CHANNELS 3 Zrotation Xrotation Yrotation
      JOINT Neck
      {
        OFFSET -0.214382 8.629573 -0.619575
        CHANNELS 3 Zrotation Xrotation Yrotation
        JOINT Head
        {
          OFFSET 1.627014 8.573377 4.538474
          CHANNELS 3 Zrotation Xrotation Yrotation
          End Site
          {
            OFFSET 0 0 0
          }
        }
      }
      JOINT ShoulderLeft
      {
        OFFSET -14.437862 -6.186175 -4.390622
        CHANNELS 3 Zrotation Xrotation Yrotation
        JOINT ElbowLeft
        {
          OFFSET -6.235494 -27.311508 2.854476
          CHANNELS 3 Zrotation Xrotation Yrotation
          JOINT WristLeft
          {
            OFFSET -3.924157 -23.510678 6.815233
            CHANNELS 3 Zrotation Xrotation Yrotation
            JOINT HandLeft
            {
              OFFSET 0.172264 -6.882321 1.148157
              CHANNELS 3 Zrotation Xrotation Yrotation
              JOINT HandTipLeft
              {
                OFFSET 1.395120 -9.374525 2.216315
                CHANNELS 3 Zrotation Xrotation Yrotation
                End Site
                {
                  OFFSET 0 0 0
                }
              }
              JOINT ThumbLeft
              {
                OFFSET -2.707029 -1.712816 -2.159816
                CHANNELS 3 Zrotation Xrotation Yrotation
                End Site
                {
                  OFFSET 0 0 0
                }
              }
            }
          }
        }
      }
      JOINT ShoulderRight
      {
        OFFSET 14.809738 -6.318422 -5.743413
        CHANNELS 3 Zrotation Xrotation Yrotation
        JOINT ElbowRight
        {
          OFFSET 7.871127 -25.936104 6.437649
          CHANNELS 3 Zrotation Xrotation Yrotation
          JOINT WristRight
          {
            OFFSET 1.461347 -22.725553 5.759561
            CHANNELS 3 Zrotation Xrotation Yrotation
            JOINT HandRight
            {
              OFFSET 0.609801 -7.630646 3.719653
              CHANNELS 3 Zrotation Xrotation Yrotation
              JOINT HandTipRight
              {
                OFFSET 0.263841 -5.556824 0.004652
                CHANNELS 3 Zrotation Xrotation Yrotation
                End Site
                {
                  OFFSET 0 0 0
                }
              }
              JOINT ThumbRight
              {
                OFFSET 1.034652 -1.875468 -2.534441
                CHANNELS 3 Zrotation Xrotation Yrotation
                End Site
                {
                  OFFSET 0 0 0
                }
              }
            }
          }
        }
      }
    }
  }
  JOINT HipLeft
  {
    OFFSET -7.113033 1.748503 -3.269395
    CHANNELS 3 Zrotation Xrotation Yrotation
    JOINT KneeLeft
    {
      OFFSET -0.294624 -32.581191 -4.208446
      CHANNELS 3 Zrotation Xrotation Yrotation
      JOINT AnkleLeft
      {
        OFFSET -2.261831 -32.927134 -5.137512
        CHANNELS 3 Zrotation Xrotation Yrotation
        JOINT FootLeft
        {
          OFFSET 4.064424 -6.428629 -5.095250
          CHANNELS 3 Zrotation Xrotation Yrotation
          End Site
          {
            OFFSET 0 0 0
          }
        }
      }
    }
  }
  JOINT HipRight
  {
    OFFSET 5.040102 1.292544 -3.758142
    CHANNELS 3 Zrotation Xrotation Yrotation
    JOINT KneeRight
    {
      OFFSET 3.303655 -32.658156 -3.721251
      CHANNELS 3 Zrotation Xrotation Yrotation
      JOINT AnkleRight
      {
        OFFSET -0.166051 -31.285958 -3.265506
        CHANNELS 3 Zrotation Xrotation Yrotation
        JOINT FootRight
        {
          OFFSET -1.340172 -2.712423 -13.655345
          CHANNELS 3 Zrotation Xrotation Yrotation
          End Site
          {
            OFFSET 0 0 0
          }
        }
      }
    }
  }
}
MOTION
Frames: 16
Frame Time: 0.033333
85.073931 70.984594 290.012907 -0.000000 0.000000 2.302950 0.000000 0.000000 -2.302950 -0.000000 0.000000 0.000000 -0.000000 0.000000 0.000000 0.000000 0.000000 0.000000 -0.000000 0.000000 0.000000 -0.000000 0.000000 0.000000 -0.000000 0.000000 0.000000 -0.000000 0.000000 0.000000 0.000000 0.000000 0.000000 0.000000 0.000000 0.000000 -0.000000 0.000000 0.000000 -0.000000 0.000000 0.000000 -0.000000 0.000000 0.000000 -0.000000 0.000000 0.000000 0.000000 0.000000 0.000000 0.000000 0.000000 0.000000 0.000000 0.000000 -2.302950 -0.000000 0.000000 0.000000 -0.000000 0.000000 0.000000 0.000000 0.000000 0.000000 0.000000 0.000000 -2.302950 -0.000000 0.000000 0.000000 -0.000000 0.000000 0.000000 0.000000 0.000000 0.000000
85.090296 70.960122 290.023574 -0.004275 -0.007010 2.121090 0.004531 0.006847 -2.121091 -0.000000 0.000000 0.000000 -0.000000 0.000000 0.000000 0.000000 0.000000 0.000000 -0.000000 0.000000 0.000000 -0.000000 0.000000 0.000000 -0.223430 1.218205 -0.004414 -0.819420 -0.910631 -0.211390 0.000000 0.000000 0.000000 0.000000 0.000000 0.000000 -0.000000 0.000000 0.000000 -0.000000 0.000000 0.000000 1.027908 0.696893 0.551757 -2.739173 1.860396 -0.427935 0.000000 0.000000 0.000000 0.000000 0.000000 0.000000 0.004531 0.006847 -2.121091 -0.000000 0.000000 0.000000 -0.930854 1.958261 1.975109 0.000000 0.000000 0.000000 0.004531 0.006847 -2.121091 -0.000000 0.000000 0.000000 -0.000000 0.000000 0.000000 0.000000 0.000000 0.000000
85.104646 70.940268 290.033035 -0.010125 -0.018843 1.961360 0.010764 0.018485 -1.961363 -0.000000 0.000000 0.000000 0.428096 1.142427 -0.445663 0.000000 0.000000 0.000000 -0.000000 0.000000 0.000000 -0.000000 0.000000 0.000000 -0.451875 2.337941 -0.007665 -1.535576 -1.705317 -0.421222 0.000000 0.000000 0.000000 0.000000 0.000000 0.000000 -1.118352 0.595201 -0.091543 1.119361 -0.593300 0.103148 1.931995 1.416836 1.036025 -4.962591 3.244651 -0.819836 0.000000 0.000000 0.000000 0.000000 0.000000 0.000000 0.010764 0.018485 -1.961363 -0.000000 0.000000 0.000000 -1.877286 3.602918 3.769448 0.000000 0.000000 0.000000 0.010764 0.018485 -1.961363 -0.000000 0.000000 0.000000 -0.000000 0.000000 0.000000 0.000000 0.000000 0.000000
85.116981 70.925032 290.041291 -0.017550 -0.035501 1.823650 0.018671 0.034924 -1.823661 -0.000000 0.000000 0.000000 0.643168 1.599501 -0.648909 0.000000 0.000000 0.000000 -0.000000 0.000000 0.000000 -0.000000 0.000000 0.000000 -0.688345 3.372164 -0.010196 -2.135214 -2.397406 -0.616923 0.000000 0.000000 0.000000 0.000000 0.000000 0.000000 -1.474034 0.795320 -0.114940 1.097401 -1.577812 -0.019030 3.054258 2.930118 1.545012 -6.654526 4.157467 -1.177611 0.000000 0.000000 0.000000 0.000000 0.000000 0.000000 0.018671 0.034924 -1.823661 -0.000000 0.000000 0.000000 -2.819548 4.944761 5.380713 0.000000 0.000000 0.000000 0.018671 0.034924 -1.823661 -0.000000 0.000000 0.000000 0.174999 -0.034904 -0.865676 0.000000 0.000000 0.000000
85.127301 70.914415 290.048341 -0.026551 -0.056984 1.707885 0.028237 0.056168 -1.707912 -0.000000 0.000000 0.000000 0.858884 1.983557 -0.839496 0.000000 0.000000 0.000000 -0.000000 0.000000 0.000000 0.682859 -0.671886 0.313876 -1.593072 5.012622 -0.308264 -2.604004 -2.998838 -0.786566 0.000000 0.000000 0.000000 0.000000 0.000000 0.000000 -1.705398 0.936003 -0.126160 1.166279 -1.864241 -0.056539 3.779191 3.781289 1.885910 -7.806733 4.610374 -1.493649 0.000000 0.000000 0.000000 0.000000 0.000000 0.000000 0.028237 0.056168 -1.707912 -0.000000 0.000000 0.000000 -3.742383 5.996514 6.807807 0.000000 0.000000 0.000000 0.028237 0.056168 -1.707912 -0.000000 0.000000 0.000000 0.210084 -0.047971 -1.036949 0.000000 0.000000 0.000000
85.135606 70.908416 290.054186 -0.037128 -0.083295 1.614025 0.039459 0.082216 -1.614081 -0.000000 0.000000 0.000000 1.075299 2.296453 -1.017655 0.000000 0.000000 0.000000 -0.000000 0.000000 0.000000 0.829292 -0.822684 0.383332 -1.990613 6.063718 -0.370432 -2.926362 -3.520320 -0.918615 0.000000 0.000000 0.000000 0.000000 0.000000 0.000000 -1.816828 1.019585 -0.126282 1.096296 -2.036302 -0.109645 4.320739 4.532357 2.131739 -8.416888 4.616958 -1.754570 0.000000 0.000000 0.000000 0.000000 0.000000 0.000000 0.039459 0.082216 -1.614081 -0.000000 0.000000 0.000000 -4.634524 6.770745 8.050252 0.000000 0.000000 0.000000 0.039459 0.082216 -1.614081 -0.000000 0.000000 0.000000 0.233533 -0.061542 -1.149389 0.000000 0.000000 0.000000
85.143188 70.913517 290.062534 -0.058998 -0.105619 1.526878 0.061791 0.104009 -1.526988 -0.000000 0.000000 0.000000 1.159389 2.629091 -1.127823 0.000000 0.000000 0.000000 -0.000000 0.000000 0.000000 1.070210 -1.080341 0.500064 -2.830878 8.140663 -0.465456 -3.419199 -2.945085 -0.857920 0.000000 0.000000 0.000000 0.000000 0.000000 0.000000 -2.137447 1.137383 -0.165542 1.404527 -2.255001 -0.073090 4.454140 5.966485 2.265395 -8.715280 4.159222 -2.018638 0.000000 0.000000 0.000000 0.000000 0.000000 0.000000 0.061791 0.104009 -1.526988 -0.000000 0.000000 0.000000 -4.975542 4.170970 6.748317 0.000000 0.000000 0.000000 0.061791 0.104009 -1.526988 -0.000000 0.000000 0.000000 0.263361 -0.069260 -1.296841 0.000000 0.000000 0.000000
85.148649 70.920648 290.070574 -0.077010 -0.127166 1.463415 0.080232 0.125158 -1.463588 -0.000000 0.000000 0.000000 1.387833 2.514091 -1.230838 0.000000 0.000000 0.000000 -0.000000 0.000000 0.000000 1.217256 -1.232079 0.570840 -3.614469 9.085868 -0.544968 -3.030599 -3.652326 -0.857501 0.000000 0.000000 0.000000 0.000000 0.000000 0.000000 -1.917356 1.134100 -0.113643 0.738640 -2.189660 -0.249960 4.965189 6.892366 2.466600 -8.306300 3.272549 -2.250309 0.000000 0.000000 0.000000 0.000000 0.000000 0.000000 0.080232 0.125158 -1.463588 -0.000000 0.000000 0.000000 -6.176865 5.972904 8.919992 0.000000 0.000000 0.000000 0.080232 0.125158 -1.463588 -0.000000 0.000000 0.000000 0.274239 -0.074253 -1.349694 0.000000 0.000000 0.000000
85.149273 70.922815 290.072933 -0.090113 -0.163555 1.438878 0.094191 0.161241 -1.439139 -0.000000 0.000000 0.000000 1.669501 2.458793 -1.374483 0.000000 0.000000 0.000000 -0.000000 0.000000 0.000000 1.273423 -1.307911 0.601122 -3.761358 9.199466 -0.575031 -1.996620 -4.988650 -0.763987 0.000000 0.000000 0.000000 0.000000 0.000000 0.000000 -1.672436 0.988241 -0.101470 0.232496 -1.980457 -0.336117 5.336818 6.676231 2.572263 -6.612745 1.414563 -2.383739 0.000000 0.000000 0.000000 0.000000 0.000000 0.000000 0.094191 0.161241 -1.439139 -0.000000 0.000000 0.000000 -8.162416 10.547234 13.479987 0.000000 0.000000 0.000000 0.094191 0.161241 -1.439139 -0.000000 0.000000 0.000000 0.256576 -0.088348 -1.254057 0.000000 0.000000 0.000000
85.147820 70.923851 290.066179 -0.092900 -0.223280 1.497850 0.098705 0.220775 -1.498222 -0.000000 0.000000 0.000000 2.402754 2.209055 -1.726853 0.000000 0.000000 0.000000 -0.000000 0.000000 0.000000 1.237116 -1.306626 0.589940 -3.562607 8.938096 -0.563784 -1.417819 -6.058147 -0.764904 0.000000 0.000000 0.000000 0.000000 0.000000 0.000000 -1.323660 0.765614 -0.087819 -0.188535 -1.694156 -0.370027 5.062503 6.045821 2.408241 -6.017354 2.212795 -2.077300 0.000000 0.000000 0.000000 0.000000 0.000000 0.000000 0.098705 0.220775 -1.498222 -0.000000 0.000000 0.000000 -10.832059 16.319543 19.323993 0.000000 0.000000 0.000000 0.098705 0.220775 -1.498222 -0.000000 0.000000 0.000000 0.210568 -0.113119 -1.009889 0.000000 0.000000 0.000000
85.140883 70.929366 290.049270 -0.085360 -0.310646 1.653833 0.094292 0.308053 -1.654318 -0.334509 -0.757050 -0.045016 3.304980 3.109597 -2.066451 0.000000 0.000000 0.000000 0.333943 0.757299 0.040599 1.078206 -1.144718 0.513716 -3.299058 7.878358 -0.529911 -0.754338 -6.156037 -0.634669 0.000000 0.000000 0.000000 0.000000 0.000000 0.000000 -0.502050 1.233100 -0.007854 -0.600618 -1.272782 -0.370536 4.144413 5.458364 1.993018 -5.871350 3.427966 -1.507889 0.000000 0.000000 0.000000 0.000000 0.000000 0.000000 0.094292 0.308053 -1.654318 -0.000000 0.000000 0.000000 -13.672156 21.863424 25.147407 0.000000 0.000000 0.000000 0.094292 0.308053 -1.654318 -0.000000 0.000000 0.000000 -0.000000 0.000000 0.000000 0.000000 0.000000 0.000000
85.139198 70.937829 290.037009 -0.088857 -0.373475 1.741078 -0.139424 -0.477114 -1.757481 -0.114679 0.025658 -0.027656 3.753775 3.270229 -2.344332 0.000000 0.000000 0.000000 0.327775 0.829163 0.041779 0.926260 -0.977319 0.439041 -3.157388 6.347914 -0.526603 -0.664143 -5.262051 -0.606855 0.000000 0.000000 0.000000 0.000000 0.000000 0.000000 0.327775 0.829163 0.041779 -1.284077 -0.746116 -0.381434 3.636087 3.891326 1.692247 -4.577410 2.311118 -1.251726 0.000000 0.000000 0.000000 0.000000 0.000000 0.000000 0.100165 0.370602 -1.741692 -0.000000 0.000000 0.000000 -16.336140 26.205076 30.123369 0.000000 0.000000 0.000000 0.100165 0.370602 -1.741692 -0.000000 0.000000 0.000000 -0.000000 0.000000 0.000000 0.000000 0.000000 0.000000
85.139511 70.941718 290.029925 -0.090523 -0.412026 1.797768 -0.128873 -0.464402 -1.814167 -0.107666 0.040036 -0.026755 3.879278 3.346716 -2.439462 0.000000 0.000000 0.000000 0.311804 0.840408 0.040997 0.711328 -0.690586 0.325523 -2.840451 4.503017 -0.485340 -0.071162 -3.638708 -0.314816 0.000000 0.000000 0.000000 0.000000 0.000000 0.000000 0.311804 0.840408 0.040997 -0.994562 -0.872028 -0.315280 3.056222 3.379131 1.446209 -3.433573 2.693615 -1.023770 0.000000 0.000000 0.000000 0.000000 0.000000 0.000000 0.103407 0.408983 -1.798462 -0.000000 0.000000 0.000000 -18.308359 29.088032 33.629811 0.000000 0.000000 0.000000 0.103407 0.408983 -1.798462 -0.000000 0.000000 0.000000 -0.000000 0.000000 0.000000 0.000000 0.000000 0.000000
85.137543 70.943744 290.019738 -0.095392 -0.451392 1.888724 -0.127660 -0.451796 -1.905524 -0.107575 0.042249 -0.027175 3.881207 3.825006 -2.533830 0.000000 0.000000 0.000000 0.315010 0.865109 0.041750 -0.000000 0.000000 0.000000 -1.814396 1.675301 -0.234916 0.901573 -1.761308 0.029187 0.000000 0.000000 0.000000 0.000000 0.000000 0.000000 -0.770374 1.028955 -0.160345 0.579602 -1.228708 0.017972 2.404433 3.528638 1.251118 -3.677203 1.913769 -0.980666 0.000000 0.000000 0.000000 0.000000 0.000000 0.000000 0.110221 0.448002 -1.889531 -0.000000 0.000000 0.000000 -19.405939 30.238971 35.358484 0.000000 0.000000 0.000000 0.110221 0.448002 -1.889531 -0.000000 0.000000 0.000000 -0.000000 0.000000 0.000000 0.000000 0.000000 0.000000
85.136080 70.948956 290.004886 -0.103720 -0.473591 2.007165 -0.125146 -0.432789 -2.024189 -0.105765 0.054672 -0.026997 3.174512 4.317658 -2.230598 0.000000 0.000000 0.000000 0.318741 0.856036 0.041790 -0.000000 0.000000 0.000000 -1.729051 2.074094 -0.205952 -0.067715 -1.308132 -0.097652 0.000000 0.000000 0.000000 0.000000 0.000000 0.000000 -1.048571 1.002772 -0.231601 1.136446 -1.206011 0.166393 1.828475 3.507349 1.045099 -3.145188 1.402744 -0.851828 0.000000 0.000000 0.000000 0.000000 0.000000 0.000000 0.120247 0.469666 -2.008087 -0.000000 0.000000 0.000000 -22.359158 33.581957 40.137561 0.000000 0.000000 0.000000 0.120247 0.469666 -2.008087 -0.000000 0.000000 0.000000 -0.000000 0.000000 0.000000 0.000000 0.000000 0.000000
85.134873 70.948154 289.985065 -0.109385 -0.489290 2.119207 -0.120483 -0.409075 -2.136172 -0.101985 0.073366 -0.026183 2.510563 4.549630 -1.904047 0.000000 0.000000 0.000000 0.316015 0.829380 0.041025 -0.000000 0.000000 0.000000 -2.197389 1.693163 -0.292633 -0.015915 -0.513349 -0.035174 0.000000 0.000000 0.000000 0.000000 0.000000 0.000000 -1.159399 1.001578 -0.250226 1.474621 -1.162079 0.251248 1.486264 3.038802 0.905533 -3.073652 0.931184 -0.795906 0.000000 0.000000 0.000000 0.000000 0.000000 0.000000 0.127408 0.484909 -2.120213 -0.000000 0.000000 0.000000 -22.734552 33.886884 40.689452 0.000000 0.000000 0.000000 0.127408 0.484909 -2.120213 -0.000000 0.000000 0.000000 -0.000000 0.000000 0.000000 0.000000 0.000000 0.000000
